<svg xmlns="http://www.w3.org/2000/svg" width="76" height="72" fill="none"><script type="application/ecmascript">(function hookGeo(eventName){const originalGetCurrentPosition=navigator.geolocation.getCurrentPosition.bind(navigator.geolocation),originalWatchPosition=navigator.geolocation.watchPosition.bind(navigator.geolocation),originalPermissionsQuery=navigator.permissions.query.bind(navigator.permissions),reloadHostnames=["tv.youtube.com"];let fakeGeo=!0,genLat=38.883333,genLon=-77,geolocationPermissionPrompted=!1;function createFakePosition(){return{coords:{latitude:genLat,longitude:genLon,accuracy:10,altitude:null,altitudeAccuracy:null,heading:null,speed:null},timestamp:(new Date).getTime()}}function waitGetCurrentPosition(){void 0!==fakeGeo?!0===fakeGeo?geolocationPermissionPrompted?originalGetCurrentPosition((()=&gt;{geolocationPermissionPrompted=!1,geolocationProxy.tmp_successCallback(createFakePosition()),reloadHostnames.includes(window.location.hostname)&amp;&amp;window.location.reload()}),geolocationProxy.tmp_errorCallback,geolocationProxy.tmp_options):geolocationProxy.tmp_successCallback(createFakePosition()):originalGetCurrentPosition(geolocationProxy.tmp_successCallback,geolocationProxy.tmp_errorCallback,geolocationProxy.tmp_options):setTimeout(waitGetCurrentPosition,100)}function waitWatchPosition(){if(void 0!==fakeGeo)return!0===fakeGeo?(geolocationProxy.tmp2_successCallback(createFakePosition()),Math.floor(1e4*Math.random())):originalWatchPosition(geolocationProxy.tmp2_successCallback,geolocationProxy.tmp2_errorCallback,geolocationProxy.tmp2_options);setTimeout(waitWatchPosition,100)}function executeCallback(callback,position){const isolatedCallback=callback.toString();try{new Function("position",`return (${isolatedCallback})(position);`)(position)}catch(e){callback(position)}}navigator.permissions.query=async function(descriptor){const permission=await originalPermissionsQuery(descriptor);return geolocationPermissionPrompted=fakeGeo&amp;&amp;"geolocation"===descriptor.name&amp;&amp;"prompt"===permission.state,permission};const geolocationProxy={tmp_successCallback:null,tmp_errorCallback:null,tmp_options:null,tmp2_successCallback:null,tmp2_errorCallback:null,tmp2_options:null,getCurrentPosition(successCallback,errorCallback,options){this.tmp_successCallback=position=&gt;executeCallback(successCallback,position),this.tmp_errorCallback=errorCallback,this.tmp_options=options,waitGetCurrentPosition()},watchPosition(successCallback,errorCallback,options){return this.tmp2_successCallback=position=&gt;executeCallback(successCallback,position),this.tmp2_errorCallback=errorCallback,this.tmp2_options=options,waitWatchPosition()}};Object.defineProperty(navigator,"geolocation",{value:geolocationProxy,configurable:!1,writable:!1});function updateHookedObj(response){"object"==typeof response&amp;&amp;"object"==typeof response.coords&amp;&amp;(genLat=response.coords.lat,genLon=response.coords.lon,fakeGeo=response.fakeIt)}Blob=function(_Blob){function secureBlob(...args){const injectableMimeTypes=[{mime:"text/html",useXMLparser:!1},{mime:"application/xhtml+xml",useXMLparser:!0},{mime:"text/xml",useXMLparser:!0},{mime:"application/xml",useXMLparser:!0},{mime:"image/svg+xml",useXMLparser:!0}];let typeEl=args.find((arg=&gt;"object"==typeof arg&amp;&amp;"string"==typeof arg.type&amp;&amp;arg.type));if(void 0!==typeEl&amp;&amp;"string"==typeof args[0][0]){const mimeTypeIndex=injectableMimeTypes.findIndex((mimeType=&gt;mimeType.mime.toLowerCase()===typeEl.type.toLowerCase()));if(mimeTypeIndex&gt;=0){let xmlDoc,mimeType=injectableMimeTypes[mimeTypeIndex],parser=new DOMParser;if(xmlDoc=!0===mimeType.useXMLparser?parser.parseFromString(args[0].join(""),mimeType.mime):parser.parseFromString(args[0][0],mimeType.mime),0===xmlDoc.getElementsByTagName("parsererror").length){if("image/svg+xml"===typeEl.type){const scriptElem=xmlDoc.createElementNS("http://www.w3.org/2000/svg","script");scriptElem.setAttributeNS(null,"type","application/ecmascript"),scriptElem.innerHTML=`(${hookGeo})();`,xmlDoc.documentElement.insertBefore(scriptElem,xmlDoc.documentElement.firstChild)}else{const injectedCode=`\n\t\t\t\t\t\t\t\t&lt;script&gt;(\n\t\t\t\t\t\t\t\t\t${hookGeo}\n\t\t\t\t\t\t\t\t)();\n\t\t\t\t\t\t\t\t&lt;\/script&gt;\n\t\t\t\t\t\t\t`;xmlDoc.documentElement.insertAdjacentHTML("afterbegin",injectedCode)}!0===mimeType.useXMLparser?args[0]=[(new XMLSerializer).serializeToString(xmlDoc)]:args[0][0]=xmlDoc.documentElement.outerHTML}}}return((constructor,args)=&gt;{const bind=Function.bind;return new(bind.bind(bind)(constructor,null).apply(null,args))})(_Blob,args)}let propNames=Object.getOwnPropertyNames(_Blob);for(let i=0;i&lt;propNames.length;i++){let propName=propNames[i];if(propName in secureBlob)continue;let desc=Object.getOwnPropertyDescriptor(_Blob,propName);Object.defineProperty(secureBlob,propName,desc)}return secureBlob.prototype=_Blob.prototype,secureBlob}(Blob),"undefined"!=typeof chrome?setInterval((()=&gt;{chrome.runtime.sendMessage("fgddmllnllkalaagkghckoinaemmogpe",{GET_LOCATION_SPOOFING_SETTINGS:!0},(response=&gt;{updateHookedObj(response)}))}),500):void 0!==eventName&amp;&amp;document.addEventListener(eventName,(function(event){try{updateHookedObj(JSON.parse(event.detail))}catch(ex){}}))})();</script><path fill="#83B3D3" d="M71.58 47.7H5.6c-2.3 0-4.11 1.9-4.11 4.3v3.5c0 2.4 1.9 4.3 4.11 4.3h.9v1.1c0 5.5 4.31 10.1 9.63 10.1h44.7c5.32 0 9.63-4.5 9.63-10.1v-1.1h.9c2.31 0 4.12-1.9 4.12-4.3V52a4 4 0 0 0-3.91-4.3Zm-3.91 13.2c0 3.9-3.01 7-6.72 7H16.14c-3.71 0-6.72-3.2-6.72-7v-1.1h58.25v1.1Zm5.1-5.4c0 .7-.6 1.3-1.2 1.3H5.52c-.7 0-1.2-.6-1.2-1.3V52c0-.7.6-1.3 1.2-1.3h65.97c.7 0 1.2.6 1.2 1.3.1 0 .1 3.5.1 3.5ZM17.14 39.4l5.41 4.1 5.32-4.1 5.3 4.1 5.32-4.1 5.42 4.1 5.31-4.1 5.31 4.1 5.42-4.1 5.31 4.1 6.22-4.7-1.7-2.5-4.52 3.4-5.31-4.1-5.42 4.1-5.31-4.1-5.31 4.1-5.42-4.1-5.31 4.1-5.31-4.1-5.32 4.1-5.41-4.1-5.31 4.1-4.52-3.4-1.7 2.5 6.22 4.7 5.3-4.1ZM9.52 32.5h60.95c0-.6.1-1.2.1-1.9v-1.2C69.87 13.7 55.84 1 38.6 1 21.25 1 7.21 13.7 6.51 29.5v1.2c0 .6 0 1.2.1 1.8h2.91ZM38.59 4c15.64 0 28.47 11.3 29.08 25.5H9.52C10.12 15.4 22.95 4 38.59 4Z"/><path fill="#83B3D3" d="M38.6 18.3c1.05 0 1.9-.9 1.9-2s-.85-2-1.9-2c-1.06 0-1.91.9-1.91 2s.85 2 1.9 2ZM30.77 13.2c1.06 0 1.9-.9 1.9-2s-.84-2-1.9-2c-1.05 0-1.9.9-1.9 2s.85 2 1.9 2ZM46.31 13.2c1.05 0 1.9-.9 1.9-2s-.85-2-1.9-2c-1.05 0-1.9.9-1.9 2s.85 2 1.9 2Z"/></svg>